<svg width="25" height="26" viewBox="0 0 25 26" fill="none" xmlns="http://www.w3.org/2000/svg">
<path d="M17.1129 0.745743C15.9706 0.745603 14.8422 0.993185 13.8081 1.4709C12.7739 1.94861 11.8593 2.64472 11.1293 3.50977C10.3992 4.37482 9.87162 5.38757 9.58398 6.47606C9.29633 7.56456 9.2557 8.70207 9.46498 9.80776L0 19.1271V23.7225C0 24.1287 0.163905 24.5183 0.455659 24.8056C0.747412 25.0929 1.14311 25.2543 1.55572 25.2543H3.11143V23.7225H6.22286V20.6589H9.3343V17.5953H12.4457L14.465 15.6071C15.5325 15.9872 16.6714 16.1326 17.802 16.0332C18.9326 15.9338 20.0274 15.592 21.0095 15.0318C21.9917 14.4716 22.8374 13.7065 23.4874 12.7903C24.1373 11.874 24.5758 10.8288 24.7719 9.72803C24.968 8.62723 24.9171 7.49751 24.6227 6.41815C24.3283 5.33879 23.7975 4.33595 23.0677 3.48001C22.3378 2.62407 21.4266 1.93577 20.3979 1.46342C19.3692 0.991067 18.2479 0.746111 17.1129 0.745743ZM19.4433 8.40772C19.1368 8.40761 18.8333 8.34806 18.5501 8.23246C18.2669 8.11686 18.0096 7.94748 17.7929 7.73398C17.5762 7.52048 17.4044 7.26704 17.2872 6.98814C17.1699 6.70925 17.1097 6.41035 17.1098 6.10851C17.1099 5.80668 17.1703 5.50782 17.2878 5.22899C17.4052 4.95017 17.5772 4.69685 17.794 4.48349C18.0109 4.27013 18.2683 4.10092 18.5515 3.9855C18.8348 3.87009 19.1383 3.81074 19.4449 3.81084C20.064 3.81104 20.6577 4.05339 21.0953 4.48458C21.5329 4.91576 21.7787 5.50046 21.7785 6.11004C21.7783 6.71963 21.5321 7.30416 21.0942 7.73506C20.6563 8.16596 20.0624 8.40792 19.4433 8.40772Z" fill="black"/>
</svg>
