<svg width="36" height="26" viewBox="0 0 36 26" fill="none" xmlns="http://www.w3.org/2000/svg">
<path d="M0.934143 3.27777C0.934143 1.49537 2.5112 0.0370331 4.43871 0.0370331H30.7229C31.1877 0.0370331 31.6334 0.20775 31.962 0.511629C32.2906 0.815507 32.4752 1.22765 32.4752 1.6574V3.27777H4.43871V4.89814H34.2275C34.6922 4.89814 35.1379 5.06886 35.4666 5.37274C35.7952 5.67662 35.9798 6.08877 35.9798 6.51851V22.7222C35.9798 23.5817 35.6106 24.406 34.9533 25.0138C34.2961 25.6215 33.4047 25.963 32.4752 25.963H4.43871C3.50924 25.963 2.61784 25.6215 1.96061 25.0138C1.30337 24.406 0.934143 23.5817 0.934143 22.7222V3.27777ZM29.8468 17.8611C30.5439 17.8611 31.2125 17.605 31.7054 17.1492C32.1983 16.6934 32.4752 16.0752 32.4752 15.4306C32.4752 14.7859 32.1983 14.1677 31.7054 13.7119C31.2125 13.2561 30.5439 13 29.8468 13C29.1497 13 28.4812 13.2561 27.9882 13.7119C27.4953 14.1677 27.2184 14.7859 27.2184 15.4306C27.2184 16.0752 27.4953 16.6934 27.9882 17.1492C28.4812 17.605 29.1497 17.8611 29.8468 17.8611Z" fill="black"/>
<path d="M13.0653 10.0085C9.34307 10.0085 6.32578 12.7987 6.32578 16.2407C6.32578 19.6828 9.34307 22.4729 13.0653 22.4729C16.7876 22.4729 19.8049 19.6828 19.8049 16.2407C19.8049 12.7987 16.7876 10.0085 13.0653 10.0085ZM16.4351 16.8639H13.7393V19.3568H12.3914V16.8639H9.69555V15.6175H12.3914V13.1246H13.7393V15.6175H16.4351V16.8639Z" fill="white"/>
</svg>
