<svg width="271" height="800" viewBox="0 0 271 800" fill="none" xmlns="http://www.w3.org/2000/svg">
<path d="M270 156.5L270.5 543L173 339V156.5L213 34L270 20V156.5Z" fill="#00A3FF"/>
<path d="M160 152H173V800H160V152Z" fill="#C0E8FF"/>
<path d="M173.5 1.5H270V19.5L215.5 121L124 83.5L173.5 1.5Z" fill="#708FFE"/>
<path d="M0 0H13L271 541V558.5L0 0Z" fill="#00A3FF"/>
<path d="M214.5 108.5C214.5 134.734 193.234 156 167 156C140.766 156 119.5 134.734 119.5 108.5C119.5 82.2665 140.766 61 167 61C193.234 61 214.5 82.2665 214.5 108.5Z" fill="#00F0FF" stroke="white" stroke-width="5"/>
</svg>
