<svg width="18" height="18" viewBox="0 0 18 18" fill="none" xmlns="http://www.w3.org/2000/svg">
<path d="M17.1336 9.60655L13.3881 7.88244V2.94253C13.3864 2.8389 13.3549 2.73794 13.2974 2.65169C13.2399 2.56545 13.1588 2.49756 13.0638 2.45611L9.01028 0.591484C8.93913 0.558558 8.86167 0.541504 8.78328 0.541504C8.70488 0.541504 8.62743 0.558558 8.55628 0.591484L4.50275 2.45611C4.40893 2.49953 4.32954 2.56894 4.27397 2.65611C4.21841 2.74329 4.18902 2.84457 4.18927 2.94794V7.88785L0.460021 9.60655C0.366205 9.64996 0.28681 9.71937 0.231248 9.80655C0.175687 9.89372 0.146291 9.995 0.146547 10.0984V15.3842C0.146291 15.4876 0.175687 15.5888 0.231248 15.676C0.28681 15.7632 0.366205 15.8326 0.460021 15.876L4.51356 17.7406C4.5847 17.7736 4.66216 17.7906 4.74055 17.7906C4.81895 17.7906 4.89641 17.7736 4.96755 17.7406L8.79409 15.9787L12.6206 17.7406C12.6918 17.7736 12.7692 17.7906 12.8476 17.7906C12.926 17.7906 13.0035 17.7736 13.0746 17.7406L17.1282 15.876C17.222 15.8326 17.3014 15.7632 17.3569 15.676C17.4125 15.5888 17.4419 15.4876 17.4416 15.3842V10.0984C17.4424 9.99559 17.4138 9.89472 17.3592 9.8076C17.3046 9.72049 17.2264 9.65074 17.1336 9.60655ZM12.853 11.3577L10.0912 10.0984L12.853 8.82827L15.6148 10.0984L12.853 11.3577ZM12.3126 7.87704L8.83192 9.49845V5.34223C8.89707 5.33934 8.96116 5.3247 9.02109 5.29899L12.3072 3.79107V7.88785L12.3126 7.87704ZM8.79409 1.67243L11.5559 2.94253L8.79409 4.21264L6.03768 2.94253L8.79409 1.67243ZM4.74055 8.82286L7.50236 10.093L4.74055 11.3577L1.97874 10.0984L4.74055 8.82286ZM8.25362 15.0329L4.74055 16.6543V12.4981C4.81598 12.4936 4.88963 12.4733 4.95674 12.4386L8.24281 10.9253L8.25362 15.0329ZM16.3607 15.0329L12.8692 16.6543V12.4981C12.9373 12.4907 13.0033 12.4706 13.0638 12.4386L16.3499 10.9253L16.3607 15.0329Z" fill="black"/>
</svg>
