<svg xmlns="http://www.w3.org/2000/svg">
    
    <symbol id="wallet_icon" width="32" height="36" viewBox="0 0 32 36" fill="none">
        <path d="M26.1227 5.4375H4.53125C4.03055 5.4375 3.625 5.03195 3.625 4.53125C3.625 4.03055 4.03055 3.625 4.53125 3.625H26.2812C26.782 3.625 27.1875 3.21945 27.1875 2.71875C27.1875 1.21721 25.9703 0 24.4688 0H3.625C1.62275 0 0 1.62275 0 3.625V21.75C0 23.7522 1.62275 25.375 3.625 25.375H26.1227C27.7097 25.375 29 24.1555 29 22.6562V8.15625C29 6.65697 27.7097 5.4375 26.1227 5.4375ZM23.5625 17.2188C22.5617 17.2188 21.75 16.4071 21.75 15.4062C21.75 14.4054 22.5617 13.5938 23.5625 13.5938C24.5633 13.5938 25.375 14.4054 25.375 15.4062C25.375 16.4071 24.5633 17.2188 23.5625 17.2188Z" fill="#708FFE"/>
    </symbol>

</svg>
