<svg width="29" height="28" viewBox="0 0 29 28" fill="none" xmlns="http://www.w3.org/2000/svg">
    <path d="M18.2154 19.5844L22.2443 15.5556H7.20203V12.4444H22.2443L18.2154 8.41556L20.4243 6.22222L28.202 14L20.4243 21.7778L18.2154 19.5844ZM25.8687 0C26.6938 0 27.4851 0.327777 28.0686 0.911223C28.652 1.49467 28.9798 2.28599 28.9798 3.11111V10.3756L25.8687 7.26444V3.11111H4.09092V24.8889H25.8687V20.7356L28.9798 17.6244V24.8889C28.9798 25.714 28.652 26.5053 28.0686 27.0888C27.4851 27.6722 26.6938 28 25.8687 28H4.09092C3.26581 28 2.47448 27.6722 1.89104 27.0888C1.30759 26.5053 0.979813 25.714 0.979813 24.8889V3.11111C0.979813 1.38444 2.36426 0 4.09092 0H25.8687Z" fill="#00F0FF"/>
</svg>
