<svg width="32" height="36" viewBox="0 0 32 36" fill="none" xmlns="http://www.w3.org/2000/svg">
<path d="M31.2283 6.93865L16.4228 0.10532C16.2729 0.0359375 16.1096 0 15.9444 0C15.7793 0 15.616 0.0359375 15.4661 0.10532L0.660559 6.93865C0.46287 7.03014 0.295567 7.17641 0.178487 7.3601C0.0614076 7.54379 -0.000535534 7.75721 3.48812e-06 7.97504V27.3362C-0.000535534 27.554 0.0614076 27.7674 0.178487 27.9511C0.295567 28.1348 0.46287 28.2811 0.660559 28.3725L15.4661 35.2059C15.616 35.2753 15.7793 35.3112 15.9444 35.3112C16.1096 35.3112 16.2729 35.2753 16.4228 35.2059L31.2283 28.3725C31.426 28.2811 31.5933 28.1348 31.7104 27.9511C31.8275 27.7674 31.8894 27.554 31.8889 27.3362V7.97504C31.8894 7.75721 31.8275 7.54379 31.7104 7.3601C31.5933 7.17641 31.426 7.03014 31.2283 6.93865ZM15.9444 13.5556L3.86084 7.97504L15.9444 2.39449L28.0281 7.97504L15.9444 13.5556ZM29.6111 26.6073L17.0833 32.3928V15.5373L29.6111 9.75171V26.6073Z" fill="#708FFE"/>
</svg>
