<svg width="23" height="20" viewBox="0 0 23 20" fill="none" xmlns="http://www.w3.org/2000/svg">
<path d="M15.8836 3.57282L19.312 7.00126C19.4565 7.14569 19.4565 7.38135 19.312 7.52579L11.0108 15.827L7.48355 16.2185C7.01223 16.2717 6.61313 15.8726 6.66635 15.4013L7.05784 11.8741L15.3591 3.57282C15.5035 3.42838 15.7392 3.42838 15.8836 3.57282ZM22.0411 2.70241L20.1863 0.847552C19.6085 0.26981 18.6697 0.26981 18.0881 0.847552L16.7426 2.19308C16.5982 2.33752 16.5982 2.57317 16.7426 2.71761L20.1711 6.14605C20.3155 6.29049 20.5511 6.29049 20.6956 6.14605L22.0411 4.80052C22.6189 4.21898 22.6189 3.28015 22.0411 2.70241ZM15.1766 13.5693V17.4386H3.01365V5.27564H11.7482C11.8698 5.27564 11.9838 5.22622 12.0713 5.1426L13.5916 3.62223C13.8805 3.33336 13.6753 2.84304 13.2686 2.84304H2.4055C1.39825 2.84304 0.581055 3.66024 0.581055 4.66749V18.0468C0.581055 19.054 1.39825 19.8712 2.4055 19.8712H15.7848C16.792 19.8712 17.6092 19.054 17.6092 18.0468V12.0489C17.6092 11.6422 17.1189 11.4407 16.83 11.7258L15.3097 13.2462C15.226 13.3336 15.1766 13.4476 15.1766 13.5693Z" fill="black"/>
</svg>
