<svg xmlns="http://www.w3.org/2000/svg">

    <!-- Header Wallet UI Icon -->
    <symbol id="wallet_icon" width="32" height="36" viewBox="0 0 32 36" fill="none">
        <path
            d="M26.1227 5.4375H4.53125C4.03055 5.4375 3.625 5.03195 3.625 4.53125C3.625 4.03055 4.03055 3.625 4.53125 3.625H26.2812C26.782 3.625 27.1875 3.21945 27.1875 2.71875C27.1875 1.21721 25.9703 0 24.4688 0H3.625C1.62275 0 0 1.62275 0 3.625V21.75C0 23.7522 1.62275 25.375 3.625 25.375H26.1227C27.7097 25.375 29 24.1555 29 22.6562V8.15625C29 6.65697 27.7097 5.4375 26.1227 5.4375ZM23.5625 17.2188C22.5617 17.2188 21.75 16.4071 21.75 15.4062C21.75 14.4054 22.5617 13.5938 23.5625 13.5938C24.5633 13.5938 25.375 14.4054 25.375 15.4062C25.375 16.4071 24.5633 17.2188 23.5625 17.2188Z"
            fill="#708FFE" />
    </symbol>

    <!-- Header Block Icon -->
    <symbol id="block_icon" width="32" height="36" viewBox="0 0 32 36" fill="none">
        <path
            d="M31.2283 6.93865L16.4228 0.10532C16.2729 0.0359375 16.1096 0 15.9444 0C15.7793 0 15.616 0.0359375 15.4661 0.10532L0.660559 6.93865C0.46287 7.03014 0.295567 7.17641 0.178487 7.3601C0.0614076 7.54379 -0.000535534 7.75721 3.48812e-06 7.97504V27.3362C-0.000535534 27.554 0.0614076 27.7674 0.178487 27.9511C0.295567 28.1348 0.46287 28.2811 0.660559 28.3725L15.4661 35.2059C15.616 35.2753 15.7793 35.3112 15.9444 35.3112C16.1096 35.3112 16.2729 35.2753 16.4228 35.2059L31.2283 28.3725C31.426 28.2811 31.5933 28.1348 31.7104 27.9511C31.8275 27.7674 31.8894 27.554 31.8889 27.3362V7.97504C31.8894 7.75721 31.8275 7.54379 31.7104 7.3601C31.5933 7.17641 31.426 7.03014 31.2283 6.93865ZM15.9444 13.5556L3.86084 7.97504L15.9444 2.39449L28.0281 7.97504L15.9444 13.5556ZM29.6111 26.6073L17.0833 32.3928V15.5373L29.6111 9.75171V26.6073Z"
            fill="#708FFE" />
    </symbol>

    <!-- Vector Edited Blocks -->
    <symbol id="mod_blocks" width="23" height="20" viewBox="0 0 23 20" fill="none">
        <path
            d="M15.8836 3.57282L19.312 7.00126C19.4565 7.14569 19.4565 7.38135 19.312 7.52579L11.0108 15.827L7.48355 16.2185C7.01223 16.2717 6.61313 15.8726 6.66635 15.4013L7.05784 11.8741L15.3591 3.57282C15.5035 3.42838 15.7392 3.42838 15.8836 3.57282ZM22.0411 2.70241L20.1863 0.847552C19.6085 0.26981 18.6697 0.26981 18.0881 0.847552L16.7426 2.19308C16.5982 2.33752 16.5982 2.57317 16.7426 2.71761L20.1711 6.14605C20.3155 6.29049 20.5511 6.29049 20.6956 6.14605L22.0411 4.80052C22.6189 4.21898 22.6189 3.28015 22.0411 2.70241ZM15.1766 13.5693V17.4386H3.01365V5.27564H11.7482C11.8698 5.27564 11.9838 5.22622 12.0713 5.1426L13.5916 3.62223C13.8805 3.33336 13.6753 2.84304 13.2686 2.84304H2.4055C1.39825 2.84304 0.581055 3.66024 0.581055 4.66749V18.0468C0.581055 19.054 1.39825 19.8712 2.4055 19.8712H15.7848C16.792 19.8712 17.6092 19.054 17.6092 18.0468V12.0489C17.6092 11.6422 17.1189 11.4407 16.83 11.7258L15.3097 13.2462C15.226 13.3336 15.1766 13.4476 15.1766 13.5693Z"
            fill="black" />
    </symbol>

    <!-- Vector Send Icons -->
    <symbol id="send_icon" width="14" height="13" viewBox="0 0 14 13" fill="none">
        <path
            d="M13.1768 5.85895L1.13509 0.192286C1.01385 0.134923 0.878796 0.113199 0.74568 0.129647C0.612564 0.146094 0.486863 0.200036 0.383229 0.285186C0.279595 0.370335 0.202296 0.483184 0.160339 0.610582C0.118383 0.737979 0.113499 0.874678 0.146255 1.00474L1.51971 6.49999L0.146255 11.9952C0.113192 12.1254 0.117863 12.2622 0.159722 12.3898C0.20158 12.5173 0.278895 12.6303 0.382623 12.7155C0.486351 12.8008 0.612203 12.8547 0.745457 12.871C0.878711 12.8873 1.01386 12.8654 1.13509 12.8077L13.1768 7.14104C13.2984 7.08383 13.4013 6.99318 13.4734 6.87966C13.5455 6.76614 13.5838 6.63446 13.5838 6.49999C13.5838 6.36553 13.5455 6.23385 13.4734 6.12033C13.4013 6.00681 13.2984 5.91616 13.1768 5.85895V5.85895ZM1.88238 10.8895L2.47667 8.51166L6.50001 6.49999L2.47667 4.48833L1.88238 2.11045L11.2111 6.49999L1.88238 10.8895Z"
            fill="#708FFE" />
    </symbol>

    <!-- Info Icon -->
    <symbol id="info_icon" width="10" height="10" viewBox="0 0 10 10" fill="none">
        <path
            d="M5 0C2.23884 0 0 2.23884 0 5C0 7.76116 2.23884 10 5 10C7.76116 10 10 7.76116 10 5C10 2.23884 7.76116 0 5 0ZM5.35714 7.41071C5.35714 7.45982 5.31696 7.5 5.26786 7.5H4.73214C4.68304 7.5 4.64286 7.45982 4.64286 7.41071V4.375C4.64286 4.32589 4.68304 4.28571 4.73214 4.28571H5.26786C5.31696 4.28571 5.35714 4.32589 5.35714 4.375V7.41071ZM5 3.57143C4.85981 3.56857 4.72633 3.51087 4.6282 3.41071C4.53007 3.31056 4.47511 3.17593 4.47511 3.03571C4.47511 2.8955 4.53007 2.76087 4.6282 2.66071C4.72633 2.56056 4.85981 2.50286 5 2.5C5.14019 2.50286 5.27367 2.56056 5.3718 2.66071C5.46993 2.76087 5.52489 2.8955 5.52489 3.03571C5.52489 3.17593 5.46993 3.31056 5.3718 3.41071C5.27367 3.51087 5.14019 3.56857 5 3.57143Z"
            fill="#00A3FF" />
    </symbol>

    <!-- Vector Copy Icon -->
    <symbol id="copy_icon" width="27" height="30" viewBox="0 0 27 30" fill="none">
        <path
            d="M4.76954 4.91769C4.00555 4.91769 3.27284 5.22119 2.73261 5.76142C2.19238 6.30165 1.88889 7.03435 1.88889 7.79835V25.0823C1.88889 25.8463 2.19238 26.579 2.73261 27.1192C3.27284 27.6595 4.00555 27.963 4.76954 27.963H19.1728C19.9368 27.963 20.6695 27.6595 21.2098 27.1192C21.75 26.579 22.0535 25.8463 22.0535 25.0823V23.642M15.4485 6.95463C14.9082 7.49485 14.1755 7.79835 13.4115 7.79835H10.5309C9.76686 7.79835 9.03416 7.49485 8.49393 6.95463C7.9537 6.4144 7.6502 5.68169 7.6502 4.91769C7.6502 4.15369 7.9537 3.42099 8.49393 2.88076C9.03416 2.34053 9.76686 2.03703 10.5309 2.03703H13.4115C14.1755 2.03703 14.9082 2.34053 15.4485 2.88076M19.1728 4.91769C19.9368 4.91769 20.6695 5.22119 21.2098 5.76142C21.75 6.30165 22.0535 7.03435 22.0535 7.79835V12.1193M24.9342 17.8807H10.5309M10.5309 17.8807L14.8518 13.5597M10.5309 17.8807L14.8518 22.2016"
            stroke="black" stroke-width="2.88066" stroke-linecap="round" stroke-linejoin="round" />
    </symbol>

    <!-- Vector Blocks Count Icon  -->
    <symbol id="block_count" width="18" height="18" viewBox="0 0 18 18" fill="none">
        <path
            d="M17.1336 9.60655L13.3881 7.88244V2.94253C13.3864 2.8389 13.3549 2.73794 13.2974 2.65169C13.2399 2.56545 13.1588 2.49756 13.0638 2.45611L9.01028 0.591484C8.93913 0.558558 8.86167 0.541504 8.78328 0.541504C8.70488 0.541504 8.62743 0.558558 8.55628 0.591484L4.50275 2.45611C4.40893 2.49953 4.32954 2.56894 4.27397 2.65611C4.21841 2.74329 4.18902 2.84457 4.18927 2.94794V7.88785L0.460021 9.60655C0.366205 9.64996 0.28681 9.71937 0.231248 9.80655C0.175687 9.89372 0.146291 9.995 0.146547 10.0984V15.3842C0.146291 15.4876 0.175687 15.5888 0.231248 15.676C0.28681 15.7632 0.366205 15.8326 0.460021 15.876L4.51356 17.7406C4.5847 17.7736 4.66216 17.7906 4.74055 17.7906C4.81895 17.7906 4.89641 17.7736 4.96755 17.7406L8.79409 15.9787L12.6206 17.7406C12.6918 17.7736 12.7692 17.7906 12.8476 17.7906C12.926 17.7906 13.0035 17.7736 13.0746 17.7406L17.1282 15.876C17.222 15.8326 17.3014 15.7632 17.3569 15.676C17.4125 15.5888 17.4419 15.4876 17.4416 15.3842V10.0984C17.4424 9.99559 17.4138 9.89472 17.3592 9.8076C17.3046 9.72049 17.2264 9.65074 17.1336 9.60655ZM12.853 11.3577L10.0912 10.0984L12.853 8.82827L15.6148 10.0984L12.853 11.3577ZM12.3126 7.87704L8.83192 9.49845V5.34223C8.89707 5.33934 8.96116 5.3247 9.02109 5.29899L12.3072 3.79107V7.88785L12.3126 7.87704ZM8.79409 1.67243L11.5559 2.94253L8.79409 4.21264L6.03768 2.94253L8.79409 1.67243ZM4.74055 8.82286L7.50236 10.093L4.74055 11.3577L1.97874 10.0984L4.74055 8.82286ZM8.25362 15.0329L4.74055 16.6543V12.4981C4.81598 12.4936 4.88963 12.4733 4.95674 12.4386L8.24281 10.9253L8.25362 15.0329ZM16.3607 15.0329L12.8692 16.6543V12.4981C12.9373 12.4907 13.0033 12.4706 13.0638 12.4386L16.3499 10.9253L16.3607 15.0329Z"
            fill="black" />
    </symbol>

    <!-- Vector Arrow Down -->
    <symbol id="arrow_down" width="12" height="9" viewBox="0 0 12 9" fill="none">
        <path d="M1.5 1L5.31502 6.70623C5.71971 7.31153 6.61494 7.29524 6.99733 6.67562L10.5 1" stroke="white"
            stroke-width="2" stroke-linecap="round" stroke-linejoin="round" />
    </symbol>

    <!-- Vector Access Wallet -->
    <symbol id="access_wallet" width="29" height="28" viewBox="0 0 29 28" fill="none">
        <path
            d="M18.2154 19.5844L22.2443 15.5556H7.20203V12.4444H22.2443L18.2154 8.41556L20.4243 6.22222L28.202 14L20.4243 21.7778L18.2154 19.5844ZM25.8687 0C26.6938 0 27.4851 0.327777 28.0686 0.911223C28.652 1.49467 28.9798 2.28599 28.9798 3.11111V10.3756L25.8687 7.26444V3.11111H4.09092V24.8889H25.8687V20.7356L28.9798 17.6244V24.8889C28.9798 25.714 28.652 26.5053 28.0686 27.0888C27.4851 27.6722 26.6938 28 25.8687 28H4.09092C3.26581 28 2.47448 27.6722 1.89104 27.0888C1.30759 26.5053 0.979813 25.714 0.979813 24.8889V3.11111C0.979813 1.38444 2.36426 0 4.09092 0H25.8687Z"
            fill="#00F0FF" />
    </symbol>

    <!-- New Wallet Icon -->
    <symbol id="new_wallet_icon" width="36" height="26" viewBox="0 0 36 26" fill="none">
        <path
            d="M0.934143 3.27777C0.934143 1.49537 2.5112 0.0370331 4.43871 0.0370331H30.7229C31.1877 0.0370331 31.6334 0.20775 31.962 0.511629C32.2906 0.815507 32.4752 1.22765 32.4752 1.6574V3.27777H4.43871V4.89814H34.2275C34.6922 4.89814 35.1379 5.06886 35.4666 5.37274C35.7952 5.67662 35.9798 6.08877 35.9798 6.51851V22.7222C35.9798 23.5817 35.6106 24.406 34.9533 25.0138C34.2961 25.6215 33.4047 25.963 32.4752 25.963H4.43871C3.50924 25.963 2.61784 25.6215 1.96061 25.0138C1.30337 24.406 0.934143 23.5817 0.934143 22.7222V3.27777ZM29.8468 17.8611C30.5439 17.8611 31.2125 17.605 31.7054 17.1492C32.1983 16.6934 32.4752 16.0752 32.4752 15.4306C32.4752 14.7859 32.1983 14.1677 31.7054 13.7119C31.2125 13.2561 30.5439 13 29.8468 13C29.1497 13 28.4812 13.2561 27.9882 13.7119C27.4953 14.1677 27.2184 14.7859 27.2184 15.4306C27.2184 16.0752 27.4953 16.6934 27.9882 17.1492C28.4812 17.605 29.1497 17.8611 29.8468 17.8611Z"
            fill="black" />
        <path
            d="M13.0653 10.0085C9.34307 10.0085 6.32578 12.7987 6.32578 16.2407C6.32578 19.6828 9.34307 22.4729 13.0653 22.4729C16.7876 22.4729 19.8049 19.6828 19.8049 16.2407C19.8049 12.7987 16.7876 10.0085 13.0653 10.0085ZM16.4351 16.8639H13.7393V19.3568H12.3914V16.8639H9.69555V15.6175H12.3914V13.1246H13.7393V15.6175H16.4351V16.8639Z"
            fill="white" />
    </symbol>

    <!-- Key Vector Icon -->
    <symbol id="key_vector" width="25" height="26" viewBox="0 0 25 26" fill="none">
        <path
            d="M17.1129 0.745743C15.9706 0.745603 14.8422 0.993185 13.8081 1.4709C12.7739 1.94861 11.8593 2.64472 11.1293 3.50977C10.3992 4.37482 9.87162 5.38757 9.58398 6.47606C9.29633 7.56456 9.2557 8.70207 9.46498 9.80776L0 19.1271V23.7225C0 24.1287 0.163905 24.5183 0.455659 24.8056C0.747412 25.0929 1.14311 25.2543 1.55572 25.2543H3.11143V23.7225H6.22286V20.6589H9.3343V17.5953H12.4457L14.465 15.6071C15.5325 15.9872 16.6714 16.1326 17.802 16.0332C18.9326 15.9338 20.0274 15.592 21.0095 15.0318C21.9917 14.4716 22.8374 13.7065 23.4874 12.7903C24.1373 11.874 24.5758 10.8288 24.7719 9.72803C24.968 8.62723 24.9171 7.49751 24.6227 6.41815C24.3283 5.33879 23.7975 4.33595 23.0677 3.48001C22.3378 2.62407 21.4266 1.93577 20.3979 1.46342C19.3692 0.991067 18.2479 0.746111 17.1129 0.745743ZM19.4433 8.40772C19.1368 8.40761 18.8333 8.34806 18.5501 8.23246C18.2669 8.11686 18.0096 7.94748 17.7929 7.73398C17.5762 7.52048 17.4044 7.26704 17.2872 6.98814C17.1699 6.70925 17.1097 6.41035 17.1098 6.10851C17.1099 5.80668 17.1703 5.50782 17.2878 5.22899C17.4052 4.95017 17.5772 4.69685 17.794 4.48349C18.0109 4.27013 18.2683 4.10092 18.5515 3.9855C18.8348 3.87009 19.1383 3.81074 19.4449 3.81084C20.064 3.81104 20.6577 4.05339 21.0953 4.48458C21.5329 4.91576 21.7787 5.50046 21.7785 6.11004C21.7783 6.71963 21.5321 7.30416 21.0942 7.73506C20.6563 8.16596 20.0624 8.40792 19.4433 8.40772Z"
            fill="black" />
    </symbol>

    <!-- BlockMatrix Status Icon -->
    <symbol id="status_blockmatrix" width="22" height="21" viewBox="0 0 22 21" fill="none">
        <path
            d="M20.3315 11.1459L16.0512 9.17561V7.39679C15.5928 7.16331 15.1756 6.85664 14.8159 6.48885V9.16944L10.8444 11.0224V6.27267C10.9188 6.26874 10.9919 6.25202 11.0606 6.22326L13.8277 4.95091C13.6737 4.55437 13.574 4.13885 13.5312 3.71561L10.8012 4.95091L7.6512 3.53032L10.8012 2.07885L13.5065 3.31414V3.26473C13.5066 2.84736 13.5626 2.43188 13.6733 2.02944L11.0483 0.843555C10.967 0.805928 10.8784 0.786438 10.7888 0.786438C10.6993 0.786438 10.6107 0.805928 10.5294 0.843555L5.89708 2.97444C5.78987 3.02405 5.69914 3.10338 5.63564 3.203C5.57215 3.30262 5.53856 3.41836 5.53885 3.5365V9.18179L1.27708 11.1459C1.16987 11.1955 1.07914 11.2748 1.01564 11.3745C0.952149 11.4741 0.918556 11.5898 0.918848 11.708V17.7486C0.918556 17.8667 0.952149 17.9824 1.01564 18.0821C1.07914 18.1817 1.16987 18.261 1.27708 18.3106L5.90944 20.4415C5.99074 20.4791 6.07926 20.4986 6.16885 20.4986C6.25844 20.4986 6.34696 20.4791 6.42826 20.4415L10.8012 18.428L15.1741 20.4415C15.2554 20.4791 15.344 20.4986 15.4336 20.4986C15.5231 20.4986 15.6117 20.4791 15.693 20.4415L20.3253 18.3106C20.4325 18.261 20.5233 18.1817 20.5868 18.0821C20.6503 17.9824 20.6838 17.8667 20.6836 17.7486V11.708C20.6844 11.5905 20.6517 11.4752 20.5894 11.3757C20.527 11.2761 20.4376 11.1964 20.3315 11.1459ZM3.03738 11.708L6.19355 10.2503L9.34973 11.7018L6.16885 13.1471L3.03738 11.708ZM6.16885 19.2V14.4503C6.25482 14.4439 6.33872 14.4208 6.41591 14.3824L10.1712 12.653V17.3471L6.16885 19.2ZM12.2836 11.708L15.4397 10.2565L18.5959 11.708L15.4397 13.1471L12.2836 11.708ZM15.4583 19.2V14.4503C15.5364 14.4438 15.6122 14.4206 15.6806 14.3824L19.4359 12.653V17.3471L15.4583 19.2Z"
            fill="white" />
        <path
            d="M18.139 6.35292C19.8445 6.35292 21.2272 4.97027 21.2272 3.26469C21.2272 1.5591 19.8445 0.176453 18.139 0.176453C16.4334 0.176453 15.0507 1.5591 15.0507 3.26469C15.0507 4.97027 16.4334 6.35292 18.139 6.35292Z"
            fill="#00A3FF" />
    </symbol>

    <!-- Vector Histroy Icon -->
    <symbol id="histroy_vector" width="22" height="20" viewBox="0 0 22 20" fill="none">
        <path
            d="M12.0306 0.881381C6.7295 0.735575 2.38657 4.99519 2.38657 10.2546H0.522334C0.0536717 10.2546 -0.175452 10.817 0.157819 11.1399L3.06352 14.056C3.27182 14.2643 3.59467 14.2643 3.80297 14.056L6.70867 11.1399C6.78064 11.0665 6.82927 10.9734 6.84842 10.8724C6.86758 10.7714 6.8564 10.6669 6.81631 10.5723C6.77621 10.4776 6.70899 10.3969 6.62311 10.3404C6.53724 10.2839 6.43655 10.254 6.33374 10.2546H4.46951C4.46951 6.19289 7.78139 2.91225 11.864 2.96432C15.7382 3.0164 18.998 6.2762 19.0501 10.1505C19.1022 14.2226 15.8216 17.5449 11.7598 17.5449C10.083 17.5449 8.53125 16.9721 7.30231 16.0035C7.10283 15.8464 6.85255 15.7681 6.59908 15.7834C6.3456 15.7988 6.10661 15.9068 5.92757 16.0869C5.49015 16.5243 5.5214 17.2637 6.01089 17.6387C7.64717 18.9326 9.67371 19.6339 11.7598 19.6279C17.0192 19.6279 21.2789 15.2849 21.1331 9.98384C20.9977 5.09934 16.9151 1.01677 12.0306 0.881381ZM11.4994 6.08874C11.0724 6.08874 10.7183 6.44284 10.7183 6.86984V10.7025C10.7183 11.067 10.9162 11.4107 11.2287 11.5981L14.4781 13.5248C14.853 13.7436 15.3321 13.6186 15.5508 13.2541C15.7695 12.8791 15.6445 12.4001 15.28 12.1813L12.2805 10.4004V6.85943C12.2805 6.44284 11.9264 6.08874 11.4994 6.08874Z"
            fill="black" />
    </symbol>

</svg>