<svg width="14" height="13" viewBox="0 0 14 13" fill="none" xmlns="http://www.w3.org/2000/svg">
<path d="M13.1768 5.85895L1.13509 0.192286C1.01385 0.134923 0.878796 0.113199 0.74568 0.129647C0.612564 0.146094 0.486863 0.200036 0.383229 0.285186C0.279595 0.370335 0.202296 0.483184 0.160339 0.610582C0.118383 0.737979 0.113499 0.874678 0.146255 1.00474L1.51971 6.49999L0.146255 11.9952C0.113192 12.1254 0.117863 12.2622 0.159722 12.3898C0.20158 12.5173 0.278895 12.6303 0.382623 12.7155C0.486351 12.8008 0.612203 12.8547 0.745457 12.871C0.878711 12.8873 1.01386 12.8654 1.13509 12.8077L13.1768 7.14104C13.2984 7.08383 13.4013 6.99318 13.4734 6.87966C13.5455 6.76614 13.5838 6.63446 13.5838 6.49999C13.5838 6.36553 13.5455 6.23385 13.4734 6.12033C13.4013 6.00681 13.2984 5.91616 13.1768 5.85895V5.85895ZM1.88238 10.8895L2.47667 8.51166L6.50001 6.49999L2.47667 4.48833L1.88238 2.11045L11.2111 6.49999L1.88238 10.8895Z" fill="#708FFE"/>
</svg>
